<svg id="my-svg" width="100%" xmlns="http://www.w3.org/2000/svg" xmlns:xlink="http://www.w3.org/1999/xlink" class="classDiagram" style="max-width: 914.961px; background-color: white;" viewBox="0 0 914.9609375 1126" role="graphics-document document" aria-roledescription="class"><style>#my-svg{font-family:"trebuchet ms",verdana,arial,sans-serif;font-size:16px;fill:#333;}@keyframes edge-animation-frame{from{stroke-dashoffset:0;}}@keyframes dash{to{stroke-dashoffset:0;}}#my-svg .edge-animation-slow{stroke-dasharray:9,5!important;stroke-dashoffset:900;animation:dash 50s linear infinite;stroke-linecap:round;}#my-svg .edge-animation-fast{stroke-dasharray:9,5!important;stroke-dashoffset:900;animation:dash 20s linear infinite;stroke-linecap:round;}#my-svg .error-icon{fill:#552222;}#my-svg .error-text{fill:#552222;stroke:#552222;}#my-svg .edge-thickness-normal{stroke-width:1px;}#my-svg .edge-thickness-thick{stroke-width:3.5px;}#my-svg .edge-pattern-solid{stroke-dasharray:0;}#my-svg .edge-thickness-invisible{stroke-width:0;fill:none;}#my-svg .edge-pattern-dashed{stroke-dasharray:3;}#my-svg .edge-pattern-dotted{stroke-dasharray:2;}#my-svg .marker{fill:#333333;stroke:#333333;}#my-svg .marker.cross{stroke:#333333;}#my-svg svg{font-family:"trebuchet ms",verdana,arial,sans-serif;font-size:16px;}#my-svg p{margin:0;}#my-svg g.classGroup text{fill:#9370DB;stroke:none;font-family:"trebuchet ms",verdana,arial,sans-serif;font-size:10px;}#my-svg g.classGroup text .title{font-weight:bolder;}#my-svg .nodeLabel,#my-svg .edgeLabel{color:#131300;}#my-svg .edgeLabel .label rect{fill:#ECECFF;}#my-svg .label text{fill:#131300;}#my-svg .labelBkg{background:#ECECFF;}#my-svg .edgeLabel .label span{background:#ECECFF;}#my-svg .classTitle{font-weight:bolder;}#my-svg .node rect,#my-svg .node circle,#my-svg .node ellipse,#my-svg .node polygon,#my-svg .node path{fill:#ECECFF;stroke:#9370DB;stroke-width:1px;}#my-svg .divider{stroke:#9370DB;stroke-width:1;}#my-svg g.clickable{cursor:pointer;}#my-svg g.classGroup rect{fill:#ECECFF;stroke:#9370DB;}#my-svg g.classGroup line{stroke:#9370DB;stroke-width:1;}#my-svg .classLabel .box{stroke:none;stroke-width:0;fill:#ECECFF;opacity:0.5;}#my-svg .classLabel .label{fill:#9370DB;font-size:10px;}#my-svg .relation{stroke:#333333;stroke-width:1;fill:none;}#my-svg .dashed-line{stroke-dasharray:3;}#my-svg .dotted-line{stroke-dasharray:1 2;}#my-svg #compositionStart,#my-svg .composition{fill:#333333!important;stroke:#333333!important;stroke-width:1;}#my-svg #compositionEnd,#my-svg .composition{fill:#333333!important;stroke:#333333!important;stroke-width:1;}#my-svg #dependencyStart,#my-svg .dependency{fill:#333333!important;stroke:#333333!important;stroke-width:1;}#my-svg #dependencyStart,#my-svg .dependency{fill:#333333!important;stroke:#333333!important;stroke-width:1;}#my-svg #extensionStart,#my-svg .extension{fill:transparent!important;stroke:#333333!important;stroke-width:1;}#my-svg #extensionEnd,#my-svg .extension{fill:transparent!important;stroke:#333333!important;stroke-width:1;}#my-svg #aggregationStart,#my-svg .aggregation{fill:transparent!important;stroke:#333333!important;stroke-width:1;}#my-svg #aggregationEnd,#my-svg .aggregation{fill:transparent!important;stroke:#333333!important;stroke-width:1;}#my-svg #lollipopStart,#my-svg .lollipop{fill:#ECECFF!important;stroke:#333333!important;stroke-width:1;}#my-svg #lollipopEnd,#my-svg .lollipop{fill:#ECECFF!important;stroke:#333333!important;stroke-width:1;}#my-svg .edgeTerminals{font-size:11px;line-height:initial;}#my-svg .classTitleText{text-anchor:middle;font-size:18px;fill:#333;}#my-svg .label-icon{display:inline-block;height:1em;overflow:visible;vertical-align:-0.125em;}#my-svg .node .label-icon path{fill:currentColor;stroke:revert;stroke-width:revert;}#my-svg :root{--mermaid-font-family:"trebuchet ms",verdana,arial,sans-serif;}</style><g><defs><marker id="my-svg_class-aggregationStart" class="marker aggregation class" refX="18" refY="7" markerWidth="190" markerHeight="240" orient="auto"><path d="M 18,7 L9,13 L1,7 L9,1 Z"/></marker></defs><defs><marker id="my-svg_class-aggregationEnd" class="marker aggregation class" refX="1" refY="7" markerWidth="20" markerHeight="28" orient="auto"><path d="M 18,7 L9,13 L1,7 L9,1 Z"/></marker></defs><defs><marker id="my-svg_class-extensionStart" class="marker extension class" refX="18" refY="7" markerWidth="190" markerHeight="240" orient="auto"><path d="M 1,7 L18,13 V 1 Z"/></marker></defs><defs><marker id="my-svg_class-extensionEnd" class="marker extension class" refX="1" refY="7" markerWidth="20" markerHeight="28" orient="auto"><path d="M 1,1 V 13 L18,7 Z"/></marker></defs><defs><marker id="my-svg_class-compositionStart" class="marker composition class" refX="18" refY="7" markerWidth="190" markerHeight="240" orient="auto"><path d="M 18,7 L9,13 L1,7 L9,1 Z"/></marker></defs><defs><marker id="my-svg_class-compositionEnd" class="marker composition class" refX="1" refY="7" markerWidth="20" markerHeight="28" orient="auto"><path d="M 18,7 L9,13 L1,7 L9,1 Z"/></marker></defs><defs><marker id="my-svg_class-dependencyStart" class="marker dependency class" refX="6" refY="7" markerWidth="190" markerHeight="240" orient="auto"><path d="M 5,7 L9,13 L1,7 L9,1 Z"/></marker></defs><defs><marker id="my-svg_class-dependencyEnd" class="marker dependency class" refX="13" refY="7" markerWidth="20" markerHeight="28" orient="auto"><path d="M 18,7 L9,13 L14,7 L9,1 Z"/></marker></defs><defs><marker id="my-svg_class-lollipopStart" class="marker lollipop class" refX="13" refY="7" markerWidth="190" markerHeight="240" orient="auto"><circle stroke="black" fill="transparent" cx="7" cy="7" r="6"/></marker></defs><defs><marker id="my-svg_class-lollipopEnd" class="marker lollipop class" refX="1" refY="7" markerWidth="190" markerHeight="240" orient="auto"><circle stroke="black" fill="transparent" cx="7" cy="7" r="6"/></marker></defs><g class="root"><g class="clusters"/><g class="edgePaths"><path d="M230.41,195.358L207.969,210.298C185.527,225.239,140.645,255.119,118.203,292.226C95.762,329.333,95.762,373.667,95.762,418C95.762,462.333,95.762,506.667,95.762,537C95.762,567.333,95.762,583.667,95.762,591.833L95.762,600" id="id_User_Parent_1" class="edge-thickness-normal edge-pattern-solid relation" style=";;;" data-edge="true" data-et="edge" data-id="id_User_Parent_1" data-points="W3sieCI6MjMwLjQxMDE1NjI1LCJ5IjoxOTUuMzU3Nzg3Njc5NTE1fSx7IngiOjk1Ljc2MTcxODc1LCJ5IjoyODV9LHsieCI6OTUuNzYxNzE4NzUsInkiOjQxOH0seyJ4Ijo5NS43NjE3MTg3NSwieSI6NTUxfSx7IngiOjk1Ljc2MTcxODc1LCJ5Ijo2MDB9XQ=="/><path d="M331.586,248L331.586,254.167C331.586,260.333,331.586,272.667,331.586,287C331.586,301.333,331.586,317.667,331.586,325.833L331.586,334" id="id_User_Educateur_2" class="edge-thickness-normal edge-pattern-solid relation" style=";;;" data-edge="true" data-et="edge" data-id="id_User_Educateur_2" data-points="W3sieCI6MzMxLjU4NTkzNzUsInkiOjI0OH0seyJ4IjozMzEuNTg1OTM3NSwieSI6Mjg1fSx7IngiOjMzMS41ODU5Mzc1LCJ5IjozMzR9XQ=="/><path d="M432.762,160.74L496.762,181.45C560.762,202.16,688.762,243.58,752.762,270.457C816.762,297.333,816.762,309.667,816.762,315.833L816.762,322" id="id_User_Dietitian_3" class="edge-thickness-normal edge-pattern-solid relation" style=";;;" data-edge="true" data-et="edge" data-id="id_User_Dietitian_3" data-points="W3sieCI6NDMyLjc2MTcxODc1LCJ5IjoxNjAuNzM5ODgxNjQ3Mjc2N30seyJ4Ijo4MTYuNzYxNzE4NzUsInkiOjI4NX0seyJ4Ijo4MTYuNzYxNzE4NzUsInkiOjMyMn1d"/><path d="M95.762,809.25L95.762,814.542C95.762,819.833,95.762,830.417,120.697,852.309C145.633,874.202,195.504,907.403,220.439,924.004L245.375,940.605" id="id_Parent_Enfant_4" class="edge-thickness-normal edge-pattern-solid relation" style=";;;" data-edge="true" data-et="edge" data-id="id_Parent_Enfant_4" data-points="W3sieCI6OTUuNzYxNzE4NzUsInkiOjc5Mn0seyJ4Ijo5NS43NjE3MTg3NSwieSI6ODQxfSx7IngiOjI0NS4zNzUsInkiOjk0MC42MDUwNTg3MjAyNDY1fV0=" marker-start="url(#my-svg_class-compositionStart)"/><path d="M331.586,502L331.586,510.167C331.586,518.333,331.586,534.667,331.586,549C331.586,563.333,331.586,575.667,331.586,581.833L331.586,588" id="id_Educateur_Group_5" class="edge-thickness-normal edge-pattern-solid relation" style=";;;" data-edge="true" data-et="edge" data-id="id_Educateur_Group_5" data-points="W3sieCI6MzMxLjU4NTkzNzUsInkiOjUwMn0seyJ4IjozMzEuNTg1OTM3NSwieSI6NTUxfSx7IngiOjMzMS41ODU5Mzc1LCJ5Ijo1ODh9XQ=="/><path d="M331.586,821.25L331.586,824.542C331.586,827.833,331.586,834.417,331.586,843.875C331.586,853.333,331.586,865.667,331.586,871.833L331.586,878" id="id_Group_Enfant_6" class="edge-thickness-normal edge-pattern-solid relation" style=";;;" data-edge="true" data-et="edge" data-id="id_Group_Enfant_6" data-points="W3sieCI6MzMxLjU4NTkzNzUsInkiOjgwNH0seyJ4IjozMzEuNTg1OTM3NSwieSI6ODQxfSx7IngiOjMzMS41ODU5Mzc1LCJ5Ijo4Nzh9XQ==" marker-start="url(#my-svg_class-aggregationStart)"/><path d="M816.762,514L816.762,520.167C816.762,526.333,816.762,538.667,816.762,552C816.762,565.333,816.762,579.667,816.762,586.833L816.762,594" id="id_Dietitian_Meal_7" class="edge-thickness-normal edge-pattern-dashed relation" style=";;;" data-edge="true" data-et="edge" data-id="id_Dietitian_Meal_7" data-points="W3sieCI6ODE2Ljc2MTcxODc1LCJ5Ijo1MTR9LHsieCI6ODE2Ljc2MTcxODc1LCJ5Ijo1NTF9LHsieCI6ODE2Ljc2MTcxODc1LCJ5Ijo2MDB9XQ==" marker-end="url(#my-svg_class-dependencyEnd)"/><path d="M589.418,804L589.418,810.167C589.418,816.333,589.418,828.667,561.669,851.731C533.919,874.795,478.42,908.589,450.671,925.486L422.922,942.384" id="id_Invoice_Enfant_8" class="edge-thickness-normal edge-pattern-dashed relation" style=";;;" data-edge="true" data-et="edge" data-id="id_Invoice_Enfant_8" data-points="W3sieCI6NTg5LjQxNzk2ODc1LCJ5Ijo4MDR9LHsieCI6NTg5LjQxNzk2ODc1LCJ5Ijo4NDF9LHsieCI6NDE3Ljc5Njg3NSwieSI6OTQ1LjUwNDEyODQ3NTExNTV9XQ==" marker-end="url(#my-svg_class-dependencyEnd)"/></g><g class="edgeLabels"><g class="edgeLabel" transform="translate(95.76171875, 418)"><g class="label" data-id="id_User_Parent_1" transform="translate(-33.765625, -12)"><foreignObject width="67.53125" height="24"><div xmlns="http://www.w3.org/1999/xhtml" class="labelBkg" style="display: table-cell; white-space: nowrap; line-height: 1.5; max-width: 200px; text-align: center;"><span class="edgeLabel"><p>Linked To</p></span></div></foreignObject></g></g><g class="edgeLabel" transform="translate(331.5859375, 285)"><g class="label" data-id="id_User_Educateur_2" transform="translate(-33.765625, -12)"><foreignObject width="67.53125" height="24"><div xmlns="http://www.w3.org/1999/xhtml" class="labelBkg" style="display: table-cell; white-space: nowrap; line-height: 1.5; max-width: 200px; text-align: center;"><span class="edgeLabel"><p>Linked To</p></span></div></foreignObject></g></g><g class="edgeLabel" transform="translate(816.76171875, 285)"><g class="label" data-id="id_User_Dietitian_3" transform="translate(-33.765625, -12)"><foreignObject width="67.53125" height="24"><div xmlns="http://www.w3.org/1999/xhtml" class="labelBkg" style="display: table-cell; white-space: nowrap; line-height: 1.5; max-width: 200px; text-align: center;"><span class="edgeLabel"><p>Linked To</p></span></div></foreignObject></g></g><g class="edgeLabel" transform="translate(95.76171875, 841)"><g class="label" data-id="id_Parent_Enfant_4" transform="translate(-32.96875, -12)"><foreignObject width="65.9375" height="24"><div xmlns="http://www.w3.org/1999/xhtml" class="labelBkg" style="display: table-cell; white-space: nowrap; line-height: 1.5; max-width: 200px; text-align: center;"><span class="edgeLabel"><p>Parent of</p></span></div></foreignObject></g></g><g class="edgeLabel" transform="translate(331.5859375, 551)"><g class="label" data-id="id_Educateur_Group_5" transform="translate(-30.0703125, -12)"><foreignObject width="60.140625" height="24"><div xmlns="http://www.w3.org/1999/xhtml" class="labelBkg" style="display: table-cell; white-space: nowrap; line-height: 1.5; max-width: 200px; text-align: center;"><span class="edgeLabel"><p>Manages</p></span></div></foreignObject></g></g><g class="edgeLabel" transform="translate(331.5859375, 841)"><g class="label" data-id="id_Group_Enfant_6" transform="translate(-30.71875, -12)"><foreignObject width="61.4375" height="24"><div xmlns="http://www.w3.org/1999/xhtml" class="labelBkg" style="display: table-cell; white-space: nowrap; line-height: 1.5; max-width: 200px; text-align: center;"><span class="edgeLabel"><p>Contains</p></span></div></foreignObject></g></g><g class="edgeLabel" transform="translate(816.76171875, 551)"><g class="label" data-id="id_Dietitian_Meal_7" transform="translate(-30.0703125, -12)"><foreignObject width="60.140625" height="24"><div xmlns="http://www.w3.org/1999/xhtml" class="labelBkg" style="display: table-cell; white-space: nowrap; line-height: 1.5; max-width: 200px; text-align: center;"><span class="edgeLabel"><p>Manages</p></span></div></foreignObject></g></g><g class="edgeLabel" transform="translate(589.41796875, 841)"><g class="label" data-id="id_Invoice_Enfant_8" transform="translate(-43.5546875, -12)"><foreignObject width="87.109375" height="24"><div xmlns="http://www.w3.org/1999/xhtml" class="labelBkg" style="display: table-cell; white-space: nowrap; line-height: 1.5; max-width: 200px; text-align: center;"><span class="edgeLabel"><p>Payment for</p></span></div></foreignObject></g></g><g class="edgeTerminals" transform="translate(207.53054037418718, 192.56975959598373)"><g class="inner" transform="translate(0, 0)"><foreignObject style="width: 9px; height: 12px;"><div xmlns="http://www.w3.org/1999/xhtml" style="display: inline-block; padding-right: 1px; white-space: nowrap;"><span class="edgeLabel">1</span></div></foreignObject></g></g><g class="edgeTerminals" transform="translate(316.58593875, 265.5000010714286)"><g class="inner" transform="translate(0, 0)"><foreignObject style="width: 9px; height: 12px;"><div xmlns="http://www.w3.org/1999/xhtml" style="display: inline-block; padding-right: 1px; white-space: nowrap;"><span class="edgeLabel">1</span></div></foreignObject></g></g><g class="edgeTerminals" transform="translate(444.793545522412, 180.39910856661422)"><g class="inner" transform="translate(0, 0)"><foreignObject style="width: 9px; height: 12px;"><div xmlns="http://www.w3.org/1999/xhtml" style="display: inline-block; padding-right: 1px; white-space: nowrap;"><span class="edgeLabel">1</span></div></foreignObject></g></g><g class="edgeTerminals" transform="translate(80.76171937500001, 809.5000005357143)"><g class="inner" transform="translate(0, 0)"><foreignObject style="width: 9px; height: 12px;"><div xmlns="http://www.w3.org/1999/xhtml" style="display: inline-block; padding-right: 1px; white-space: nowrap;"><span class="edgeLabel">1</span></div></foreignObject></g></g><g class="edgeTerminals" transform="translate(316.58593875, 519.5000010714285)"><g class="inner" transform="translate(0, 0)"><foreignObject style="width: 9px; height: 12px;"><div xmlns="http://www.w3.org/1999/xhtml" style="display: inline-block; padding-right: 1px; white-space: nowrap;"><span class="edgeLabel">1</span></div></foreignObject></g></g><g class="edgeTerminals" transform="translate(316.58593875, 821.5000010714285)"><g class="inner" transform="translate(0, 0)"><foreignObject style="width: 9px; height: 12px;"><div xmlns="http://www.w3.org/1999/xhtml" style="display: inline-block; padding-right: 1px; white-space: nowrap;"><span class="edgeLabel">1</span></div></foreignObject></g></g><g class="edgeTerminals" transform="translate(801.761719375, 531.5000005357143)"><g class="inner" transform="translate(0, 0)"><foreignObject style="width: 9px; height: 12px;"><div xmlns="http://www.w3.org/1999/xhtml" style="display: inline-block; padding-right: 1px; white-space: nowrap;"><span class="edgeLabel">1</span></div></foreignObject></g></g><g class="edgeTerminals" transform="translate(574.417969375, 821.5000005357143)"><g class="inner" transform="translate(0, 0)"><foreignObject style="width: 9px; height: 12px;"><div xmlns="http://www.w3.org/1999/xhtml" style="display: inline-block; padding-right: 1px; white-space: nowrap;"><span class="edgeLabel">*</span></div></foreignObject></g></g><g class="edgeTerminals" transform="translate(105.76171937499998, 577.5000005357143)"><g class="inner" transform="translate(0, 0)"/><foreignObject style="width: 36px; height: 12px;"><div xmlns="http://www.w3.org/1999/xhtml" style="display: inline-block; padding-right: 1px; white-space: nowrap;"><span class="edgeLabel">0..1</span></div></foreignObject></g><g class="edgeTerminals" transform="translate(341.5859387499999, 311.5000010714286)"><g class="inner" transform="translate(0, 0)"/><foreignObject style="width: 36px; height: 12px;"><div xmlns="http://www.w3.org/1999/xhtml" style="display: inline-block; padding-right: 1px; white-space: nowrap;"><span class="edgeLabel">0..1</span></div></foreignObject></g><g class="edgeTerminals" transform="translate(826.761719375, 299.50000053571426)"><g class="inner" transform="translate(0, 0)"/><foreignObject style="width: 36px; height: 12px;"><div xmlns="http://www.w3.org/1999/xhtml" style="display: inline-block; padding-right: 1px; white-space: nowrap;"><span class="edgeLabel">0..1</span></div></foreignObject></g><g class="edgeTerminals" transform="translate(234.1205389098847, 913.4210158880016)"><g class="inner" transform="translate(0, 0)"/><foreignObject style="width: 9px; height: 12px;"><div xmlns="http://www.w3.org/1999/xhtml" style="display: inline-block; padding-right: 1px; white-space: nowrap;"><span class="edgeLabel">*</span></div></foreignObject></g><g class="edgeTerminals" transform="translate(341.5859387499999, 565.5000010714285)"><g class="inner" transform="translate(0, 0)"/><foreignObject style="width: 9px; height: 12px;"><div xmlns="http://www.w3.org/1999/xhtml" style="display: inline-block; padding-right: 1px; white-space: nowrap;"><span class="edgeLabel">*</span></div></foreignObject></g><g class="edgeTerminals" transform="translate(341.5859387499999, 855.5000010714285)"><g class="inner" transform="translate(0, 0)"/><foreignObject style="width: 9px; height: 12px;"><div xmlns="http://www.w3.org/1999/xhtml" style="display: inline-block; padding-right: 1px; white-space: nowrap;"><span class="edgeLabel">*</span></div></foreignObject></g></g><g class="nodes"><g class="node default" id="classId-User-0" transform="translate(331.5859375, 128)"><g class="basic label-container"><path d="M-101.17578125 -120 L101.17578125 -120 L101.17578125 120 L-101.17578125 120" stroke="none" stroke-width="0" fill="#ECECFF" style=""/><path d="M-101.17578125 -120 C-47.16046935563916 -120, 6.854842538721684 -120, 101.17578125 -120 M-101.17578125 -120 C-53.50288701547922 -120, -5.829992780958435 -120, 101.17578125 -120 M101.17578125 -120 C101.17578125 -44.7219854746932, 101.17578125 30.556029050613603, 101.17578125 120 M101.17578125 -120 C101.17578125 -46.37122458151224, 101.17578125 27.257550836975525, 101.17578125 120 M101.17578125 120 C46.62627075220753 120, -7.923239745584937 120, -101.17578125 120 M101.17578125 120 C46.37128345353208 120, -8.433214342935841 120, -101.17578125 120 M-101.17578125 120 C-101.17578125 50.96251192415613, -101.17578125 -18.074976151687736, -101.17578125 -120 M-101.17578125 120 C-101.17578125 40.25094697822949, -101.17578125 -39.498106043541014, -101.17578125 -120" stroke="#9370DB" stroke-width="1.3" fill="none" stroke-dasharray="0 0" style=""/></g><g class="annotation-group text" transform="translate(0, -96)"/><g class="label-group text" transform="translate(-16.8828125, -96)"><g class="label" style="font-weight: bolder" transform="translate(0,-12)"><foreignObject width="33.765625" height="24"><div xmlns="http://www.w3.org/1999/xhtml" style="display: table-cell; white-space: nowrap; line-height: 1.5; max-width: 82px; text-align: center;"><span class="nodeLabel markdown-node-label" style=""><p>User</p></span></div></foreignObject></g></g><g class="members-group text" transform="translate(-89.17578125, -48)"><g class="label" style="" transform="translate(0,-12)"><foreignObject width="124.125" height="24"><div xmlns="http://www.w3.org/1999/xhtml" style="display: table-cell; white-space: nowrap; line-height: 1.5; max-width: 169px; text-align: center;"><span class="nodeLabel markdown-node-label" style=""><p>+String username</p></span></div></foreignObject></g><g class="label" style="" transform="translate(0,12)"><foreignObject width="83.0625" height="24"><div xmlns="http://www.w3.org/1999/xhtml" style="display: table-cell; white-space: nowrap; line-height: 1.5; max-width: 132px; text-align: center;"><span class="nodeLabel markdown-node-label" style=""><p>+String role</p></span></div></foreignObject></g><g class="label" style="" transform="translate(0,36)"><foreignObject width="161.46875" height="24"><div xmlns="http://www.w3.org/1999/xhtml" style="display: table-cell; white-space: nowrap; line-height: 1.5; max-width: 206px; text-align: center;"><span class="nodeLabel markdown-node-label" style=""><p>+String password_hash</p></span></div></foreignObject></g><g class="label" style="" transform="translate(0,60)"><foreignObject width="128.734375" height="24"><div xmlns="http://www.w3.org/1999/xhtml" style="display: table-cell; white-space: nowrap; line-height: 1.5; max-width: 173px; text-align: center;"><span class="nodeLabel markdown-node-label" style=""><p>+String related_id</p></span></div></foreignObject></g></g><g class="methods-group text" transform="translate(-89.17578125, 72)"><g class="label" style="" transform="translate(0,-12)"><foreignObject width="135.8125" height="24"><div xmlns="http://www.w3.org/1999/xhtml" style="display: table-cell; white-space: nowrap; line-height: 1.5; max-width: 181px; text-align: center;"><span class="nodeLabel markdown-node-label" style=""><p>+check_password()</p></span></div></foreignObject></g><g class="label" style="" transform="translate(0,12)"><foreignObject width="71.203125" height="24"><div xmlns="http://www.w3.org/1999/xhtml" style="display: table-cell; white-space: nowrap; line-height: 1.5; max-width: 120px; text-align: center;"><span class="nodeLabel markdown-node-label" style=""><p>+to_dict()</p></span></div></foreignObject></g></g><g class="divider" style=""><path d="M-101.17578125 -72 C-25.218691884778195 -72, 50.73839748044361 -72, 101.17578125 -72 M-101.17578125 -72 C-46.54658960108692 -72, 8.082602047826157 -72, 101.17578125 -72" stroke="#9370DB" stroke-width="1.3" fill="none" stroke-dasharray="0 0" style=""/></g><g class="divider" style=""><path d="M-101.17578125 48 C-20.87606105846902 48, 59.42365913306196 48, 101.17578125 48 M-101.17578125 48 C-41.01360701480428 48, 19.148567220391442 48, 101.17578125 48" stroke="#9370DB" stroke-width="1.3" fill="none" stroke-dasharray="0 0" style=""/></g></g><g class="node default" id="classId-Parent-1" transform="translate(95.76171875, 696)"><g class="basic label-container"><path d="M-87.76171875 -96 L87.76171875 -96 L87.76171875 96 L-87.76171875 96" stroke="none" stroke-width="0" fill="#ECECFF" style=""/><path d="M-87.76171875 -96 C-31.048163173555132 -96, 25.665392402889736 -96, 87.76171875 -96 M-87.76171875 -96 C-40.26675491279695 -96, 7.228208924406104 -96, 87.76171875 -96 M87.76171875 -96 C87.76171875 -56.03965798813381, 87.76171875 -16.079315976267623, 87.76171875 96 M87.76171875 -96 C87.76171875 -38.98126637960084, 87.76171875 18.03746724079832, 87.76171875 96 M87.76171875 96 C45.672749905363155 96, 3.5837810607263094 96, -87.76171875 96 M87.76171875 96 C35.36098900256311 96, -17.039740744873782 96, -87.76171875 96 M-87.76171875 96 C-87.76171875 43.06151759586919, -87.76171875 -9.876964808261619, -87.76171875 -96 M-87.76171875 96 C-87.76171875 42.57687267629461, -87.76171875 -10.846254647410774, -87.76171875 -96" stroke="#9370DB" stroke-width="1.3" fill="none" stroke-dasharray="0 0" style=""/></g><g class="annotation-group text" transform="translate(0, -72)"/><g class="label-group text" transform="translate(-24.4921875, -72)"><g class="label" style="font-weight: bolder" transform="translate(0,-12)"><foreignObject width="48.984375" height="24"><div xmlns="http://www.w3.org/1999/xhtml" style="display: table-cell; white-space: nowrap; line-height: 1.5; max-width: 92px; text-align: center;"><span class="nodeLabel markdown-node-label" style=""><p>Parent</p></span></div></foreignObject></g></g><g class="members-group text" transform="translate(-75.76171875, -24)"><g class="label" style="" transform="translate(0,-12)"><foreignObject width="85.421875" height="24"><div xmlns="http://www.w3.org/1999/xhtml" style="display: table-cell; white-space: nowrap; line-height: 1.5; max-width: 137px; text-align: center;"><span class="nodeLabel markdown-node-label" style=""><p>+String nom</p></span></div></foreignObject></g><g class="label" style="" transform="translate(0,12)"><foreignObject width="127.03125" height="24"><div xmlns="http://www.w3.org/1999/xhtml" style="display: table-cell; white-space: nowrap; line-height: 1.5; max-width: 170px; text-align: center;"><span class="nodeLabel markdown-node-label" style=""><p>+String telephone</p></span></div></foreignObject></g><g class="label" style="" transform="translate(0,36)"><foreignObject width="94.5" height="24"><div xmlns="http://www.w3.org/1999/xhtml" style="display: table-cell; white-space: nowrap; line-height: 1.5; max-width: 144px; text-align: center;"><span class="nodeLabel markdown-node-label" style=""><p>+String email</p></span></div></foreignObject></g></g><g class="methods-group text" transform="translate(-75.76171875, 72)"><g class="label" style="" transform="translate(0,-12)"><foreignObject width="71.203125" height="24"><div xmlns="http://www.w3.org/1999/xhtml" style="display: table-cell; white-space: nowrap; line-height: 1.5; max-width: 120px; text-align: center;"><span class="nodeLabel markdown-node-label" style=""><p>+to_dict()</p></span></div></foreignObject></g></g><g class="divider" style=""><path d="M-87.76171875 -48 C-22.302765383780596 -48, 43.15618798243881 -48, 87.76171875 -48 M-87.76171875 -48 C-37.910833726121204 -48, 11.940051297757591 -48, 87.76171875 -48" stroke="#9370DB" stroke-width="1.3" fill="none" stroke-dasharray="0 0" style=""/></g><g class="divider" style=""><path d="M-87.76171875 48 C-40.65944142805344 48, 6.442835893893118 48, 87.76171875 48 M-87.76171875 48 C-28.495114751849506 48, 30.771489246300987 48, 87.76171875 48" stroke="#9370DB" stroke-width="1.3" fill="none" stroke-dasharray="0 0" style=""/></g></g><g class="node default" id="classId-Enfant-2" transform="translate(331.5859375, 998)"><g class="basic label-container"><path d="M-86.2109375 -120 L86.2109375 -120 L86.2109375 120 L-86.2109375 120" stroke="none" stroke-width="0" fill="#ECECFF" style=""/><path d="M-86.2109375 -120 C-19.68256108780676 -120, 46.84581532438648 -120, 86.2109375 -120 M-86.2109375 -120 C-44.68356871113016 -120, -3.1561999222603134 -120, 86.2109375 -120 M86.2109375 -120 C86.2109375 -47.82927285831936, 86.2109375 24.341454283361287, 86.2109375 120 M86.2109375 -120 C86.2109375 -41.501104270022395, 86.2109375 36.99779145995521, 86.2109375 120 M86.2109375 120 C29.460074944403075 120, -27.29078761119385 120, -86.2109375 120 M86.2109375 120 C31.561324378975662 120, -23.088288742048675 120, -86.2109375 120 M-86.2109375 120 C-86.2109375 45.03592439402091, -86.2109375 -29.92815121195818, -86.2109375 -120 M-86.2109375 120 C-86.2109375 53.03472846593209, -86.2109375 -13.930543068135819, -86.2109375 -120" stroke="#9370DB" stroke-width="1.3" fill="none" stroke-dasharray="0 0" style=""/></g><g class="annotation-group text" transform="translate(0, -96)"/><g class="label-group text" transform="translate(-24.390625, -96)"><g class="label" style="font-weight: bolder" transform="translate(0,-12)"><foreignObject width="48.78125" height="24"><div xmlns="http://www.w3.org/1999/xhtml" style="display: table-cell; white-space: nowrap; line-height: 1.5; max-width: 94px; text-align: center;"><span class="nodeLabel markdown-node-label" style=""><p>Enfant</p></span></div></foreignObject></g></g><g class="members-group text" transform="translate(-74.2109375, -48)"><g class="label" style="" transform="translate(0,-12)"><foreignObject width="85.421875" height="24"><div xmlns="http://www.w3.org/1999/xhtml" style="display: table-cell; white-space: nowrap; line-height: 1.5; max-width: 137px; text-align: center;"><span class="nodeLabel markdown-node-label" style=""><p>+String nom</p></span></div></foreignObject></g><g class="label" style="" transform="translate(0,12)"><foreignObject width="58.03125" height="24"><div xmlns="http://www.w3.org/1999/xhtml" style="display: table-cell; white-space: nowrap; line-height: 1.5; max-width: 108px; text-align: center;"><span class="nodeLabel markdown-node-label" style=""><p>+int age</p></span></div></foreignObject></g><g class="label" style="" transform="translate(0,36)"><foreignObject width="117.171875" height="24"><div xmlns="http://www.w3.org/1999/xhtml" style="display: table-cell; white-space: nowrap; line-height: 1.5; max-width: 166px; text-align: center;"><span class="nodeLabel markdown-node-label" style=""><p>+String group_id</p></span></div></foreignObject></g><g class="label" style="" transform="translate(0,60)"><foreignObject width="124.03125" height="24"><div xmlns="http://www.w3.org/1999/xhtml" style="display: table-cell; white-space: nowrap; line-height: 1.5; max-width: 169px; text-align: center;"><span class="nodeLabel markdown-node-label" style=""><p>+String parent_id</p></span></div></foreignObject></g><g class="label" style="" transform="translate(0,84)"><foreignObject width="99.28125" height="24"><div xmlns="http://www.w3.org/1999/xhtml" style="display: table-cell; white-space: nowrap; line-height: 1.5; max-width: 147px; text-align: center;"><span class="nodeLabel markdown-node-label" style=""><p>+List allergies</p></span></div></foreignObject></g></g><g class="methods-group text" transform="translate(-74.2109375, 96)"><g class="label" style="" transform="translate(0,-12)"><foreignObject width="71.203125" height="24"><div xmlns="http://www.w3.org/1999/xhtml" style="display: table-cell; white-space: nowrap; line-height: 1.5; max-width: 120px; text-align: center;"><span class="nodeLabel markdown-node-label" style=""><p>+to_dict()</p></span></div></foreignObject></g></g><g class="divider" style=""><path d="M-86.2109375 -72 C-31.84983894095243 -72, 22.51125961809514 -72, 86.2109375 -72 M-86.2109375 -72 C-48.97933667785724 -72, -11.747735855714481 -72, 86.2109375 -72" stroke="#9370DB" stroke-width="1.3" fill="none" stroke-dasharray="0 0" style=""/></g><g class="divider" style=""><path d="M-86.2109375 72 C-21.549140154703323 72, 43.11265719059335 72, 86.2109375 72 M-86.2109375 72 C-20.226670491088896 72, 45.75759651782221 72, 86.2109375 72" stroke="#9370DB" stroke-width="1.3" fill="none" stroke-dasharray="0 0" style=""/></g></g><g class="node default" id="classId-Educateur-3" transform="translate(331.5859375, 418)"><g class="basic label-container"><path d="M-93.18359375 -84 L93.18359375 -84 L93.18359375 84 L-93.18359375 84" stroke="none" stroke-width="0" fill="#ECECFF" style=""/><path d="M-93.18359375 -84 C-20.62176050940151 -84, 51.94007273119698 -84, 93.18359375 -84 M-93.18359375 -84 C-30.527186051849405 -84, 32.12922164630119 -84, 93.18359375 -84 M93.18359375 -84 C93.18359375 -17.89872077242282, 93.18359375 48.20255845515436, 93.18359375 84 M93.18359375 -84 C93.18359375 -41.18276803118553, 93.18359375 1.6344639376289365, 93.18359375 84 M93.18359375 84 C31.868885678101307 84, -29.445822393797386 84, -93.18359375 84 M93.18359375 84 C53.91367022118406 84, 14.643746692368126 84, -93.18359375 84 M-93.18359375 84 C-93.18359375 20.0758505096441, -93.18359375 -43.8482989807118, -93.18359375 -84 M-93.18359375 84 C-93.18359375 25.879616249915898, -93.18359375 -32.240767500168204, -93.18359375 -84" stroke="#9370DB" stroke-width="1.3" fill="none" stroke-dasharray="0 0" style=""/></g><g class="annotation-group text" transform="translate(0, -60)"/><g class="label-group text" transform="translate(-38.1953125, -60)"><g class="label" style="font-weight: bolder" transform="translate(0,-12)"><foreignObject width="76.390625" height="24"><div xmlns="http://www.w3.org/1999/xhtml" style="display: table-cell; white-space: nowrap; line-height: 1.5; max-width: 117px; text-align: center;"><span class="nodeLabel markdown-node-label" style=""><p>Educateur</p></span></div></foreignObject></g></g><g class="members-group text" transform="translate(-81.18359375, -12)"><g class="label" style="" transform="translate(0,-12)"><foreignObject width="85.421875" height="24"><div xmlns="http://www.w3.org/1999/xhtml" style="display: table-cell; white-space: nowrap; line-height: 1.5; max-width: 137px; text-align: center;"><span class="nodeLabel markdown-node-label" style=""><p>+String nom</p></span></div></foreignObject></g><g class="label" style="" transform="translate(0,12)"><foreignObject width="124.171875" height="24"><div xmlns="http://www.w3.org/1999/xhtml" style="display: table-cell; white-space: nowrap; line-height: 1.5; max-width: 168px; text-align: center;"><span class="nodeLabel markdown-node-label" style=""><p>+String specialite</p></span></div></foreignObject></g></g><g class="methods-group text" transform="translate(-81.18359375, 60)"><g class="label" style="" transform="translate(0,-12)"><foreignObject width="71.203125" height="24"><div xmlns="http://www.w3.org/1999/xhtml" style="display: table-cell; white-space: nowrap; line-height: 1.5; max-width: 120px; text-align: center;"><span class="nodeLabel markdown-node-label" style=""><p>+to_dict()</p></span></div></foreignObject></g></g><g class="divider" style=""><path d="M-93.18359375 -36 C-35.695146799249756 -36, 21.79330015150049 -36, 93.18359375 -36 M-93.18359375 -36 C-34.523997331500304 -36, 24.13559908699939 -36, 93.18359375 -36" stroke="#9370DB" stroke-width="1.3" fill="none" stroke-dasharray="0 0" style=""/></g><g class="divider" style=""><path d="M-93.18359375 36 C-30.143873127541596 36, 32.89584749491681 36, 93.18359375 36 M-93.18359375 36 C-33.23686171655038 36, 26.70987031689924 36, 93.18359375 36" stroke="#9370DB" stroke-width="1.3" fill="none" stroke-dasharray="0 0" style=""/></g></g><g class="node default" id="classId-Dietitian-4" transform="translate(816.76171875, 418)"><g class="basic label-container"><path d="M-90.19921875 -96 L90.19921875 -96 L90.19921875 96 L-90.19921875 96" stroke="none" stroke-width="0" fill="#ECECFF" style=""/><path d="M-90.19921875 -96 C-30.309467753789733 -96, 29.580283242420535 -96, 90.19921875 -96 M-90.19921875 -96 C-28.661076328489457 -96, 32.877066093021085 -96, 90.19921875 -96 M90.19921875 -96 C90.19921875 -31.202871423006457, 90.19921875 33.59425715398709, 90.19921875 96 M90.19921875 -96 C90.19921875 -32.09438138341575, 90.19921875 31.811237233168498, 90.19921875 96 M90.19921875 96 C50.52267419743463 96, 10.846129644869265 96, -90.19921875 96 M90.19921875 96 C43.00684681073743 96, -4.185525128525143 96, -90.19921875 96 M-90.19921875 96 C-90.19921875 52.44596508987452, -90.19921875 8.891930179749039, -90.19921875 -96 M-90.19921875 96 C-90.19921875 32.53727927758088, -90.19921875 -30.925441444838242, -90.19921875 -96" stroke="#9370DB" stroke-width="1.3" fill="none" stroke-dasharray="0 0" style=""/></g><g class="annotation-group text" transform="translate(0, -72)"/><g class="label-group text" transform="translate(-32.2265625, -72)"><g class="label" style="font-weight: bolder" transform="translate(0,-12)"><foreignObject width="64.453125" height="24"><div xmlns="http://www.w3.org/1999/xhtml" style="display: table-cell; white-space: nowrap; line-height: 1.5; max-width: 108px; text-align: center;"><span class="nodeLabel markdown-node-label" style=""><p>Dietitian</p></span></div></foreignObject></g></g><g class="members-group text" transform="translate(-78.19921875, -24)"><g class="label" style="" transform="translate(0,-12)"><foreignObject width="85.421875" height="24"><div xmlns="http://www.w3.org/1999/xhtml" style="display: table-cell; white-space: nowrap; line-height: 1.5; max-width: 137px; text-align: center;"><span class="nodeLabel markdown-node-label" style=""><p>+String nom</p></span></div></foreignObject></g><g class="label" style="" transform="translate(0,12)"><foreignObject width="94.5" height="24"><div xmlns="http://www.w3.org/1999/xhtml" style="display: table-cell; white-space: nowrap; line-height: 1.5; max-width: 144px; text-align: center;"><span class="nodeLabel markdown-node-label" style=""><p>+String email</p></span></div></foreignObject></g><g class="label" style="" transform="translate(0,36)"><foreignObject width="124.171875" height="24"><div xmlns="http://www.w3.org/1999/xhtml" style="display: table-cell; white-space: nowrap; line-height: 1.5; max-width: 168px; text-align: center;"><span class="nodeLabel markdown-node-label" style=""><p>+String specialite</p></span></div></foreignObject></g></g><g class="methods-group text" transform="translate(-78.19921875, 72)"><g class="label" style="" transform="translate(0,-12)"><foreignObject width="71.203125" height="24"><div xmlns="http://www.w3.org/1999/xhtml" style="display: table-cell; white-space: nowrap; line-height: 1.5; max-width: 120px; text-align: center;"><span class="nodeLabel markdown-node-label" style=""><p>+to_dict()</p></span></div></foreignObject></g></g><g class="divider" style=""><path d="M-90.19921875 -48 C-37.18564844537157 -48, 15.827921859256861 -48, 90.19921875 -48 M-90.19921875 -48 C-28.00741154633085 -48, 34.1843956573383 -48, 90.19921875 -48" stroke="#9370DB" stroke-width="1.3" fill="none" stroke-dasharray="0 0" style=""/></g><g class="divider" style=""><path d="M-90.19921875 48 C-48.13742077746233 48, -6.075622804924663 48, 90.19921875 48 M-90.19921875 48 C-45.62563545594101 48, -1.052052161882017 48, 90.19921875 48" stroke="#9370DB" stroke-width="1.3" fill="none" stroke-dasharray="0 0" style=""/></g></g><g class="node default" id="classId-Group-5" transform="translate(331.5859375, 696)"><g class="basic label-container"><path d="M-98.0625 -108 L98.0625 -108 L98.0625 108 L-98.0625 108" stroke="none" stroke-width="0" fill="#ECECFF" style=""/><path d="M-98.0625 -108 C-37.9636197322297 -108, 22.135260535540596 -108, 98.0625 -108 M-98.0625 -108 C-53.020996398864604 -108, -7.979492797729208 -108, 98.0625 -108 M98.0625 -108 C98.0625 -49.178216681557224, 98.0625 9.643566636885552, 98.0625 108 M98.0625 -108 C98.0625 -58.856818421232816, 98.0625 -9.713636842465633, 98.0625 108 M98.0625 108 C48.76752402374503 108, -0.527451952509935 108, -98.0625 108 M98.0625 108 C42.311735703077964 108, -13.439028593844071 108, -98.0625 108 M-98.0625 108 C-98.0625 32.58045240895504, -98.0625 -42.83909518208992, -98.0625 -108 M-98.0625 108 C-98.0625 59.709092822880415, -98.0625 11.418185645760829, -98.0625 -108" stroke="#9370DB" stroke-width="1.3" fill="none" stroke-dasharray="0 0" style=""/></g><g class="annotation-group text" transform="translate(0, -84)"/><g class="label-group text" transform="translate(-22.703125, -84)"><g class="label" style="font-weight: bolder" transform="translate(0,-12)"><foreignObject width="45.40625" height="24"><div xmlns="http://www.w3.org/1999/xhtml" style="display: table-cell; white-space: nowrap; line-height: 1.5; max-width: 91px; text-align: center;"><span class="nodeLabel markdown-node-label" style=""><p>Group</p></span></div></foreignObject></g></g><g class="members-group text" transform="translate(-86.0625, -36)"><g class="label" style="" transform="translate(0,-12)"><foreignObject width="85.421875" height="24"><div xmlns="http://www.w3.org/1999/xhtml" style="display: table-cell; white-space: nowrap; line-height: 1.5; max-width: 137px; text-align: center;"><span class="nodeLabel markdown-node-label" style=""><p>+String nom</p></span></div></foreignObject></g><g class="label" style="" transform="translate(0,12)"><foreignObject width="93.234375" height="24"><div xmlns="http://www.w3.org/1999/xhtml" style="display: table-cell; white-space: nowrap; line-height: 1.5; max-width: 140px; text-align: center;"><span class="nodeLabel markdown-node-label" style=""><p>+int capacity</p></span></div></foreignObject></g><g class="label" style="" transform="translate(0,36)"><foreignObject width="128.484375" height="24"><div xmlns="http://www.w3.org/1999/xhtml" style="display: table-cell; white-space: nowrap; line-height: 1.5; max-width: 173px; text-align: center;"><span class="nodeLabel markdown-node-label" style=""><p>+String age_range</p></span></div></foreignObject></g><g class="label" style="" transform="translate(0,60)"><foreignObject width="149.421875" height="24"><div xmlns="http://www.w3.org/1999/xhtml" style="display: table-cell; white-space: nowrap; line-height: 1.5; max-width: 191px; text-align: center;"><span class="nodeLabel markdown-node-label" style=""><p>+String educateur_id</p></span></div></foreignObject></g></g><g class="methods-group text" transform="translate(-86.0625, 84)"><g class="label" style="" transform="translate(0,-12)"><foreignObject width="71.203125" height="24"><div xmlns="http://www.w3.org/1999/xhtml" style="display: table-cell; white-space: nowrap; line-height: 1.5; max-width: 120px; text-align: center;"><span class="nodeLabel markdown-node-label" style=""><p>+to_dict()</p></span></div></foreignObject></g></g><g class="divider" style=""><path d="M-98.0625 -60 C-38.189594262006324 -60, 21.683311475987352 -60, 98.0625 -60 M-98.0625 -60 C-45.55400998034953 -60, 6.954480039300947 -60, 98.0625 -60" stroke="#9370DB" stroke-width="1.3" fill="none" stroke-dasharray="0 0" style=""/></g><g class="divider" style=""><path d="M-98.0625 60 C-46.697448872671885 60, 4.667602254656231 60, 98.0625 60 M-98.0625 60 C-20.36419881327599 60, 57.33410237344802 60, 98.0625 60" stroke="#9370DB" stroke-width="1.3" fill="none" stroke-dasharray="0 0" style=""/></g></g><g class="node default" id="classId-Invoice-6" transform="translate(589.41796875, 696)"><g class="basic label-container"><path d="M-109.76953125 -108 L109.76953125 -108 L109.76953125 108 L-109.76953125 108" stroke="none" stroke-width="0" fill="#ECECFF" style=""/><path d="M-109.76953125 -108 C-49.688545418427836 -108, 10.392440413144328 -108, 109.76953125 -108 M-109.76953125 -108 C-39.93670845512902 -108, 29.896114339741956 -108, 109.76953125 -108 M109.76953125 -108 C109.76953125 -34.857615084791306, 109.76953125 38.28476983041739, 109.76953125 108 M109.76953125 -108 C109.76953125 -38.298524696851686, 109.76953125 31.402950606296628, 109.76953125 108 M109.76953125 108 C31.51155006868754 108, -46.74643111262492 108, -109.76953125 108 M109.76953125 108 C50.98388500543482 108, -7.801761239130357 108, -109.76953125 108 M-109.76953125 108 C-109.76953125 42.50695295744916, -109.76953125 -22.986094085101684, -109.76953125 -108 M-109.76953125 108 C-109.76953125 44.27112223631016, -109.76953125 -19.457755527379675, -109.76953125 -108" stroke="#9370DB" stroke-width="1.3" fill="none" stroke-dasharray="0 0" style=""/></g><g class="annotation-group text" transform="translate(0, -84)"/><g class="label-group text" transform="translate(-26.7734375, -84)"><g class="label" style="font-weight: bolder" transform="translate(0,-12)"><foreignObject width="53.546875" height="24"><div xmlns="http://www.w3.org/1999/xhtml" style="display: table-cell; white-space: nowrap; line-height: 1.5; max-width: 98px; text-align: center;"><span class="nodeLabel markdown-node-label" style=""><p>Invoice</p></span></div></foreignObject></g></g><g class="members-group text" transform="translate(-97.76953125, -36)"><g class="label" style="" transform="translate(0,-12)"><foreignObject width="168.765625" height="24"><div xmlns="http://www.w3.org/1999/xhtml" style="display: table-cell; white-space: nowrap; line-height: 1.5; max-width: 212px; text-align: center;"><span class="nodeLabel markdown-node-label" style=""><p>+String invoice_number</p></span></div></foreignObject></g><g class="label" style="" transform="translate(0,12)"><foreignObject width="101.28125" height="24"><div xmlns="http://www.w3.org/1999/xhtml" style="display: table-cell; white-space: nowrap; line-height: 1.5; max-width: 146px; text-align: center;"><span class="nodeLabel markdown-node-label" style=""><p>+float amount</p></span></div></foreignObject></g><g class="label" style="" transform="translate(0,36)"><foreignObject width="97.59375" height="24"><div xmlns="http://www.w3.org/1999/xhtml" style="display: table-cell; white-space: nowrap; line-height: 1.5; max-width: 144px; text-align: center;"><span class="nodeLabel markdown-node-label" style=""><p>+String status</p></span></div></foreignObject></g></g><g class="methods-group text" transform="translate(-97.76953125, 60)"><g class="label" style="" transform="translate(0,-12)"><foreignObject width="116.203125" height="24"><div xmlns="http://www.w3.org/1999/xhtml" style="display: table-cell; white-space: nowrap; line-height: 1.5; max-width: 159px; text-align: center;"><span class="nodeLabel markdown-node-label" style=""><p>+generate_pdf()</p></span></div></foreignObject></g><g class="label" style="" transform="translate(0,12)"><foreignObject width="71.203125" height="24"><div xmlns="http://www.w3.org/1999/xhtml" style="display: table-cell; white-space: nowrap; line-height: 1.5; max-width: 120px; text-align: center;"><span class="nodeLabel markdown-node-label" style=""><p>+to_dict()</p></span></div></foreignObject></g></g><g class="divider" style=""><path d="M-109.76953125 -60 C-27.473595882140856 -60, 54.82233948571829 -60, 109.76953125 -60 M-109.76953125 -60 C-40.135676102501435 -60, 29.49817904499713 -60, 109.76953125 -60" stroke="#9370DB" stroke-width="1.3" fill="none" stroke-dasharray="0 0" style=""/></g><g class="divider" style=""><path d="M-109.76953125 36 C-33.160833776887515 36, 43.44786369622497 36, 109.76953125 36 M-109.76953125 36 C-50.89408410294981 36, 7.981363044100377 36, 109.76953125 36" stroke="#9370DB" stroke-width="1.3" fill="none" stroke-dasharray="0 0" style=""/></g></g><g class="node default" id="classId-Meal-7" transform="translate(816.76171875, 696)"><g class="basic label-container"><path d="M-67.57421875 -96 L67.57421875 -96 L67.57421875 96 L-67.57421875 96" stroke="none" stroke-width="0" fill="#ECECFF" style=""/><path d="M-67.57421875 -96 C-13.654773886839827 -96, 40.264670976320346 -96, 67.57421875 -96 M-67.57421875 -96 C-39.76513664952551 -96, -11.956054549051018 -96, 67.57421875 -96 M67.57421875 -96 C67.57421875 -50.224695771314515, 67.57421875 -4.44939154262903, 67.57421875 96 M67.57421875 -96 C67.57421875 -49.322953199589435, 67.57421875 -2.6459063991788696, 67.57421875 96 M67.57421875 96 C16.578006618262222 96, -34.418205513475556 96, -67.57421875 96 M67.57421875 96 C39.66132201405282 96, 11.748425278105643 96, -67.57421875 96 M-67.57421875 96 C-67.57421875 36.36682207443402, -67.57421875 -23.266355851131962, -67.57421875 -96 M-67.57421875 96 C-67.57421875 36.392287237043035, -67.57421875 -23.21542552591393, -67.57421875 -96" stroke="#9370DB" stroke-width="1.3" fill="none" stroke-dasharray="0 0" style=""/></g><g class="annotation-group text" transform="translate(0, -72)"/><g class="label-group text" transform="translate(-17.1796875, -72)"><g class="label" style="font-weight: bolder" transform="translate(0,-12)"><foreignObject width="34.359375" height="24"><div xmlns="http://www.w3.org/1999/xhtml" style="display: table-cell; white-space: nowrap; line-height: 1.5; max-width: 84px; text-align: center;"><span class="nodeLabel markdown-node-label" style=""><p>Meal</p></span></div></foreignObject></g></g><g class="members-group text" transform="translate(-55.57421875, -24)"><g class="label" style="" transform="translate(0,-12)"><foreignObject width="93.96875" height="24"><div xmlns="http://www.w3.org/1999/xhtml" style="display: table-cell; white-space: nowrap; line-height: 1.5; max-width: 142px; text-align: center;"><span class="nodeLabel markdown-node-label" style=""><p>+String name</p></span></div></foreignObject></g><g class="label" style="" transform="translate(0,12)"><foreignObject width="86.6875" height="24"><div xmlns="http://www.w3.org/1999/xhtml" style="display: table-cell; white-space: nowrap; line-height: 1.5; max-width: 135px; text-align: center;"><span class="nodeLabel markdown-node-label" style=""><p>+String type</p></span></div></foreignObject></g><g class="label" style="" transform="translate(0,36)"><foreignObject width="88.484375" height="24"><div xmlns="http://www.w3.org/1999/xhtml" style="display: table-cell; white-space: nowrap; line-height: 1.5; max-width: 135px; text-align: center;"><span class="nodeLabel markdown-node-label" style=""><p>+int calories</p></span></div></foreignObject></g></g><g class="methods-group text" transform="translate(-55.57421875, 72)"><g class="label" style="" transform="translate(0,-12)"><foreignObject width="71.203125" height="24"><div xmlns="http://www.w3.org/1999/xhtml" style="display: table-cell; white-space: nowrap; line-height: 1.5; max-width: 120px; text-align: center;"><span class="nodeLabel markdown-node-label" style=""><p>+to_dict()</p></span></div></foreignObject></g></g><g class="divider" style=""><path d="M-67.57421875 -48 C-32.66576506581162 -48, 2.2426886183767607 -48, 67.57421875 -48 M-67.57421875 -48 C-38.32063914054617 -48, -9.06705953109234 -48, 67.57421875 -48" stroke="#9370DB" stroke-width="1.3" fill="none" stroke-dasharray="0 0" style=""/></g><g class="divider" style=""><path d="M-67.57421875 48 C-37.246238206383616 48, -6.918257662767232 48, 67.57421875 48 M-67.57421875 48 C-26.742469267052776 48, 14.089280215894448 48, 67.57421875 48" stroke="#9370DB" stroke-width="1.3" fill="none" stroke-dasharray="0 0" style=""/></g></g></g></g></g></svg>